<?xml version="1.0" encoding="UTF-8" standalone="no"?>
<svg
   width="255.47818"
   height="56.823242"
   overflow="hidden"
   version="1.1"
   id="svg16"
   sodipodi:docname="ReCoN_logo.svg"
   xmlns:inkscape="http://www.inkscape.org/namespaces/inkscape"
   xmlns:sodipodi="http://sodipodi.sourceforge.net/DTD/sodipodi-0.dtd"
   xmlns="http://www.w3.org/2000/svg"
   xmlns:svg="http://www.w3.org/2000/svg">
  <defs
     id="defs16" />
  <sodipodi:namedview
     id="namedview16"
     pagecolor="#ffffff"
     bordercolor="#000000"
     borderopacity="0.25"
     inkscape:showpageshadow="2"
     inkscape:pageopacity="0.0"
     inkscape:pagecheckerboard="0"
     inkscape:deskcolor="#d1d1d1" />
  <g
     id="g16"
     transform="translate(-432.33218,-333.17676)">
    <text
       fill="#666666"
       font-family="Arial, Arial_MSFontService, sans-serif"
       font-weight="700"
       font-size="71px"
       transform="translate(642.222,384)"
       id="text3"
       inkscape:export-filename="ReCoN_logo_100.png"
       inkscape:export-xdpi="100"
       inkscape:export-ydpi="100">N</text>
    <text
       fill="#666666"
       font-family="Arial, Arial_MSFontService, sans-serif"
       font-weight="700"
       font-size="71px"
       transform="translate(427.132,384)"
       id="text4">R</text>
    <path
       d="m 567,344 c 0,-2.209 2.015,-4 4.5,-4 2.485,0 4.5,1.791 4.5,4 0,2.209 -2.015,4 -4.5,4 -2.485,0 -4.5,-1.791 -4.5,-4 z"
       fill="#6d9eeb"
       fill-rule="evenodd"
       id="path4" />
    <path
       d="m 576,371 c 0,-2.209 2.015,-4 4.5,-4 2.485,0 4.5,1.791 4.5,4 0,2.209 -2.015,4 -4.5,4 -2.485,0 -4.5,-1.791 -4.5,-4 z"
       fill="#e06666"
       fill-rule="evenodd"
       id="path5" />
    <path
       d="m 585,386 c 0,-2.209 2.015,-4 4.5,-4 2.485,0 4.5,1.791 4.5,4 0,2.209 -2.015,4 -4.5,4 -2.485,0 -4.5,-1.791 -4.5,-4 z"
       fill="#bf9000"
       fill-rule="evenodd"
       id="path6" />
    <path
       d="m 580,352 c 0,-2.209 2.015,-4 4.5,-4 2.485,0 4.5,1.791 4.5,4 0,2.209 -2.015,4 -4.5,4 -2.485,0 -4.5,-1.791 -4.5,-4 z"
       fill="#f6b26b"
       fill-rule="evenodd"
       id="path7" />
    <path
       d="m 567,380 c 0,-2.209 2.015,-4 4.5,-4 2.485,0 4.5,1.791 4.5,4 0,2.209 -2.015,4 -4.5,4 -2.485,0 -4.5,-1.791 -4.5,-4 z"
       fill="#c27ba0"
       fill-rule="evenodd"
       id="path8" />
    <path
       d="m 550,363.5 c 0,-1.933 2.015,-3.5 4.5,-3.5 2.485,0 4.5,1.567 4.5,3.5 0,1.933 -2.015,3.5 -4.5,3.5 -2.485,0 -4.5,-1.567 -4.5,-3.5 z"
       fill="#93c47d"
       fill-rule="evenodd"
       id="path9" />
    <path
       d="m 562,358 c 0,-2.209 2.015,-4 4.5,-4 2.485,0 4.5,1.791 4.5,4 0,2.209 -2.015,4 -4.5,4 -2.485,0 -4.5,-1.791 -4.5,-4 z"
       fill="#ffd966"
       fill-rule="evenodd"
       id="path10" />
    <path
       d="m 596.782,373.357 c -1.555,-3.377 -3.31,-8.734 -2.632,-13.1 0.678,-4.366 3.191,-9.825 6.701,-13.1 3.51,-3.275 9.412,-5.595 14.358,-6.55 4.946,-0.955 11.168,-0.853 15.316,0.818 4.147,1.672 8.095,5.22 9.571,9.211 1.476,3.992 1.079,9.757 -0.717,14.738 -1.794,4.981 -5.904,12.043 -10.051,15.146 -4.148,3.105 -10.529,3.48 -14.837,3.48 -4.307,0 -8.056,-1.705 -11.008,-3.48 -2.951,-1.773 -5.145,-3.786 -6.701,-7.163 z"
       fill="#674ea7"
       fill-rule="evenodd"
       id="path11" />
    <path
       d="m 608.848,357.241 c 1.315,-0.671 3.042,-1.373 5.181,-1.219 2.141,0.153 5.841,0.79 7.659,2.142 1.819,1.353 2.966,3.782 3.254,5.97 0.287,2.189 -0.535,5.416 -1.531,7.162 -0.993,1.746 -2.712,2.784 -4.437,3.315 -1.725,0.53 -3.878,0.548 -5.914,-0.127 -2.036,-0.674 -4.958,-2.266 -6.3,-3.919 -1.342,-1.654 -1.645,-4.247 -1.748,-6 -0.103,-1.753 0.49,-3.297 1.129,-4.518 0.64,-1.22 1.393,-2.135 2.707,-2.806 z"
       fill="#d9d2e9"
       fill-rule="evenodd"
       id="path12" />
    <path
       d="m 516.103,363.576 27.903,0.004 -10e-4,9.367 -27.903,-0.003 z"
       fill="#666666"
       fill-rule="evenodd"
       id="path13" />
    <path
       d="m 563.843,385.949 c -12.684,3.087 -25.44,-4.571 -28.491,-17.104 -0.379,-1.558 -0.595,-3.152 -0.644,-4.755 l 9.249,-0.327 c 0.214,7.792 6.818,13.881 14.75,13.6 0.993,-0.035 1.981,-0.171 2.948,-0.407 z"
       fill="#666666"
       fill-rule="evenodd"
       id="path14" />
    <rect
       x="0"
       y="0"
       width="27.9028"
       height="9.3674498"
       fill="#666666"
       transform="matrix(1,-1.13446e-4,-1.13446e-4,-1,516.103,360.295)"
       id="rect14" />
    <path
       d="M 0,23.6378 C 0,10.583 10.4572,0 23.3569,0 24.9602,0 26.5594,0.16709 28.129,0.498625 L 26.2596,9.56294 C 18.6381,7.92785 11.16,12.9039 9.55686,20.6773 9.35608,21.6509 9.25488,22.643 9.25488,23.6379 Z"
       fill="#666666"
       fill-rule="evenodd"
       transform="matrix(-0.236498,0.971632,0.971632,0.236498,540.876,332.333)"
       id="path15" />
    <text
       fill="#666666"
       font-family="Arial, Arial_MSFontService, sans-serif"
       font-weight="700"
       font-size="68px"
       transform="translate(477.42,378)"
       id="text15">e</text>
    <text
       fill="#1b1b1b"
       font-family="'Didact Gothic', 'Didact Gothic_MSFontService', sans-serif"
       font-weight="400"
       font-size="23px"
       transform="translate(1241.07,696)"
       id="text16">32</text>
  </g>
</svg>
